0
SECTION
2
HEADER
9
$INSUNITS
70
4
9
$ACADVER
1
AC1014
9
$HANDSEED
5
FFFF
0
ENDSEC
0
SECTION
2
TABLES
0
TABLE
2
VPORT
5
8
100
AcDbSymbolTable
0
ENDTAB
0
TABLE
2
LTYPE
5
5
100
AcDbSymbolTable
0
LTYPE
5
14
100
AcDbSymbolTableRecord
100
AcDbLinetypeTableRecord
2
BYBLOCK
70
0
0
LTYPE
5
15
100
AcDbSymbolTableRecord
100
AcDbLinetypeTableRecord
2
BYLAYER
70
0
0
LTYPE
5
16
100
AcDbSymbolTableRecord
100
AcDbLinetypeTableRecord
2
DASHED
70
0
3
Dashed __ __ __ __ __ __ __ __ __ __ __ __ __ _
72
65
73
2
40
0.75
49
0.5
74
0
49
-0.25
74
0
0
ENDTAB
0
TABLE
2
LAYER
5
2
100
AcDbSymbolTable
70
2
0
LAYER
5
50
100
AcDbSymbolTableRecord
100
AcDbLayerTableRecord
2
0
70
0
62
7
6
CONTINUOUS
0
ENDTAB
0
TABLE
2
STYLE
5
3
100
AcDbSymbolTable
70
1
0
STYLE
5
11
100
AcDbSymbolTableRecord
100
AcDbTextStyleTableRecord
2
STANDARD
70
0
0
ENDTAB
0
TABLE
2
VIEW
5
6
100
AcDbSymbolTable
70
0
0
ENDTAB
0
TABLE
2
UCS
5
7
100
AcDbSymbolTable
70
0
0
ENDTAB
0
TABLE
2
APPID
5
9
100
AcDbSymbolTable
70
2
0
APPID
5
12
100
AcDbSymbolTableRecord
100
AcDbRegAppTableRecord
2
ACAD
70
0
0
ENDTAB
0
TABLE
2
DIMSTYLE
5
A
100
AcDbSymbolTable
70
1
0
ENDTAB
0
TABLE
2
BLOCK_RECORD
5
1
100
AcDbSymbolTable
70
1
0
BLOCK_RECORD
5
1F
100
AcDbSymbolTableRecord
100
AcDbBlockTableRecord
2
*MODEL_SPACE
0
BLOCK_RECORD
5
1B
100
AcDbSymbolTableRecord
100
AcDbBlockTableRecord
2
*PAPER_SPACE
0
ENDTAB
0
ENDSEC
0
SECTION
2
BLOCKS
0
BLOCK
5
20
100
AcDbEntity
100
AcDbBlockBegin
2
*MODEL_SPACE
0
ENDBLK
5
21
100
AcDbEntity
100
AcDbBlockEnd
0
BLOCK
5
1C
100
AcDbEntity
100
AcDbBlockBegin
2
*PAPER_SPACE
0
ENDBLK
5
1D
100
AcDbEntity
100
AcDbBlockEnd
0
ENDSEC
0
SECTION
2
ENTITIES
0
CIRCLE
5
100
100
AcDbEntity
8
0
100
AcDbCircle
10
-174.09389342116938
20
-85.39866106962549
30
-1.9721522630525295e-30
40
2.7499999999999991
210
0
220
-0
230
1
0
CIRCLE
5
101
100
AcDbEntity
8
0
100
AcDbCircle
10
-150.52389342116939
20
-108.96866106962548
30
-1.9721522630525295e-30
40
21
210
0
220
-0
230
1
0
CIRCLE
5
102
100
AcDbEntity
8
0
100
AcDbCircle
10
-174.09389342116938
20
-132.53866106962548
30
-1.9721522630525295e-30
40
2.7499999999999991
210
0
220
-0
230
1
0
CIRCLE
5
103
100
AcDbEntity
8
0
100
AcDbCircle
10
-126.95389342116938
20
-85.398661069625476
30
-1.9721522630525295e-30
40
2.7499999999999991
210
0
220
-0
230
1
0
CIRCLE
5
104
100
AcDbEntity
8
0
100
AcDbCircle
10
-126.95389342116938
20
-132.5386610696255
30
-1.9721522630525295e-30
40
2.7499999999999991
210
0
220
-0
230
1
0
CIRCLE
5
105
100
AcDbEntity
8
0
100
AcDbCircle
10
-10.999999999999979
20
-7.9999999999999893
30
1.9721522630525295e-30
40
2.0000000000000018
210
1.2611489780213151e-48
220
-1.9473291659915681e-32
230
1
0
CIRCLE
5
106
100
AcDbEntity
8
0
100
AcDbCircle
10
-55.999999999999972
20
-8.0000000000000071
30
-1.9721522630525295e-30
40
2
210
1.2611489780213157e-48
220
-1.9473291659915686e-32
230
1
0
CIRCLE
5
107
100
AcDbEntity
8
0
100
AcDbCircle
10
-100.99999999999996
20
-8.0000000000000071
30
-5.9164567891575885e-30
40
2.0000000000000018
210
1.2611489780213151e-48
220
-1.9473291659915681e-32
230
1
0
CIRCLE
5
108
100
AcDbEntity
8
0
100
AcDbCircle
10
-10.999999999999961
20
-210.09557368467716
30
-1.9721522630525295e-30
40
2.0000000000000018
210
4.0115782911125618e-49
220
-3.5137521874272394e-33
230
1
0
CIRCLE
5
109
100
AcDbEntity
8
0
100
AcDbCircle
10
-100.99999999999993
20
-210.09557368467716
30
-1.9721522630525295e-30
40
2.0000000000000018
210
4.0115782911125618e-49
220
-3.5137521874272394e-33
230
1
0
CIRCLE
5
110
100
AcDbEntity
8
0
100
AcDbCircle
10
-55.999999999999943
20
-210.09557368467716
30
-1.9721522630525295e-30
40
2
210
4.0115782911125307e-49
220
-3.513752187427212e-33
230
1
0
LWPOLYLINE
5
111
100
AcDbEntity
8
0
100
AcDbPolyline
90
32
70
1
43
0.0
10
66.523893421169319
20
-141.04778684233855
42
0.41421356237309503
10
68.523893421169305
20
-139.04778684233855
10
68.523893421169348
20
-79.047786842338581
42
0.41421356237309243
10
66.523893421169319
20
-77.047786842338567
10
10.523893421169337
20
-77.047786842338567
42
0.4142135623730947
10
8.5238934211693369
20
-79.047786842338581
10
8.523893421169344
20
-81.047786842338567
10
4.0000000000000391
20
-81.047786842338567
10
4.0000000000000213
20
-4.0000000000000036
42
0.41421356237309481
10
-1.1983605721832316e-15
20
-4.4408920985006262e-15
10
-111.99999999999996
20
0
42
0.41421356237309304
10
-115.99999999999994
20
-4.0000000000000222
10
-115.99999999999996
20
-81.047786842338581
10
-120.52389342116926
20
-81.047786842338581
10
-120.52389342116926
20
-79.047786842338553
42
0.41421356237309503
10
-122.52389342116926
20
-77.047786842338567
10
-178.52389342116925
20
-77.047786842338567
42
0.4142135623730937
10
-180.52389342116925
20
-79.047786842338567
10
-180.52389342116925
20
-139.04778684233858
42
0.41421356237309503
10
-178.52389342116925
20
-141.04778684233858
10
-122.52389342116926
20
-141.04778684233858
42
0.41421356237309503
10
-120.52389342116926
20
-139.04778684233858
10
-120.52389342116925
20
-137.04778684233858
10
-115.99999999999996
20
-137.04778684233858
10
-115.99999999999993
20
-214.09557368467716
42
0.41421356237309503
10
-111.99999999999996
20
-218.09557368467716
10
7.1054273576010019e-14
20
-218.09557368467716
42
0.4142135623730942
10
4.0000000000000453
20
-214.09557368467716
10
4.0000000000000391
20
-137.04778684233855
10
8.523893421169344
20
-137.04778684233855
10
8.523893421169344
20
-139.04778684233855
42
0.41421356237309537
10
10.523893421169337
20
-141.04778684233855
0
ENDSEC
0
SECTION
2
OBJECTS
0
DICTIONARY
5
C
100
AcDbDictionary
3
ACAD_GROUP
350
D
3
ACAD_MLINESTYLE
350
17
0
DICTIONARY
5
D
100
AcDbDictionary
0
DICTIONARY
5
1A
330
C
100
AcDbDictionary
0
DICTIONARY
5
17
100
AcDbDictionary
0
ENDSEC
0
EOF
